<svg width="486" height="84" viewBox="0 0 486 84" fill="none" xmlns="http://www.w3.org/2000/svg">
<path fill-rule="evenodd" clip-rule="evenodd" d="M439 2.5C439 3.88071 437.881 5 436.5 5H417.5C416.119 5 415 3.88071 415 2.5V2.5C415 1.11929 416.119 0 417.5 0H436.5C437.881 0 439 1.11929 439 2.5V2.5ZM459 2.5C459 3.88071 460.119 5 461.5 5H462C472.493 5 481 13.5066 481 24V60C481 70.4934 472.493 79 462 79H24C13.5066 79 5 70.4934 5 60V24C5 13.5066 13.5066 5 24 5H322.5C323.881 5 325 3.88071 325 2.5V2.5C325 1.11929 323.881 0 322.5 0H24C10.7452 0 0 10.7452 0 24V60C0 73.2548 10.7452 84 24 84H462C475.255 84 486 73.2548 486 60V24C486 10.7452 475.255 0 462 0H461.5C460.119 0 459 1.11929 459 2.5V2.5Z" fill="white"/>
</svg>
